<?xml version="1.0" standalone="no"?>
<!DOCTYPE svg PUBLIC "-//W3C//DTD SVG 20010904//EN"
 "http://www.w3.org/TR/2001/REC-SVG-20010904/DTD/svg10.dtd">
<svg version="1.0" xmlns="http://www.w3.org/2000/svg"
 width="1072.000000pt" height="1280.000000pt" viewBox="0 0 1072.000000 1280.000000"
 preserveAspectRatio="xMidYMid meet">
<metadata>
Created by potrace 1.15, written by Peter Selinger 2001-2017
</metadata>
<g transform="translate(0.000000,1280.000000) scale(0.100000,-0.100000)"
fill="#ffffff" stroke="none">
<path d="M5280 12769 c-73 -40 -92 -59 -152 -154 -114 -177 -215 -484 -307
-940 -103 -508 -117 -821 -105 -2380 12 -1612 12 -1584 -8 -1621 -10 -18 -20
-58 -22 -90 -4 -49 -10 -62 -40 -93 -28 -28 -38 -33 -48 -23 -9 9 -7 27 11 80
18 56 20 76 12 111 -5 23 -11 44 -13 47 -3 2 -19 -18 -36 -45 -34 -52 -162
-168 -334 -303 -59 -45 -154 -125 -212 -176 -57 -51 -107 -89 -109 -85 -2 5 0
37 5 73 5 36 9 178 9 316 1 271 -5 309 -53 336 -17 10 -79 13 -248 13 -198 0
-229 -2 -258 -18 -18 -10 -37 -30 -43 -45 -22 -58 -33 -367 -20 -556 6 -100
16 -201 20 -226 8 -40 32 -72 61 -82 10 -3 23 -65 34 -160 l6 -48 -273 -218
c-381 -305 -870 -692 -1362 -1077 -798 -625 -1042 -819 -1407 -1123 -162 -134
-198 -168 -198 -189 0 -14 -11 -38 -25 -55 -14 -16 -25 -39 -25 -50 0 -11 -32
-72 -70 -135 -39 -64 -70 -124 -70 -133 0 -28 11 -50 24 -50 9 0 12 -33 12
-122 0 -68 4 -140 8 -161 l7 -37 25 30 c32 37 42 38 46 3 2 -22 8 -28 28 -28
23 0 25 5 30 50 l5 50 747 339 747 339 4 36 c2 20 4 6 5 -33 2 -50 5 -67 15
-63 15 6 1031 460 1412 630 l280 126 3 40 c2 23 4 41 6 41 1 0 90 13 197 30
238 37 229 36 229 5 0 -30 -8 -30 165 -5 250 35 618 79 685 82 l65 3 6 -790
c6 -807 10 -891 55 -1310 19 -183 59 -442 90 -582 28 -130 30 -190 9 -221 -19
-26 -212 -173 -865 -659 -267 -199 -500 -377 -518 -396 -19 -19 -38 -52 -43
-73 -12 -52 -12 -454 0 -454 5 0 121 27 258 61 136 33 320 78 408 99 88 21
273 66 410 100 268 66 494 120 499 120 2 0 6 -32 10 -72 8 -88 25 -118 66
-118 22 0 30 -5 30 -17 1 -50 40 -314 49 -331 6 -12 19 -23 29 -26 13 -4 25
-38 49 -138 33 -136 60 -218 73 -218 13 0 40 82 73 218 24 100 36 134 49 138
10 3 23 14 29 26 9 17 48 281 49 330 0 12 10 18 32 20 41 4 56 33 65 123 3 36
7 65 9 65 5 0 231 -54 499 -120 138 -34 322 -79 410 -100 88 -21 272 -66 408
-99 137 -34 253 -61 258 -61 11 0 11 388 0 448 -6 28 -21 56 -42 79 -19 19
-243 190 -499 381 -641 477 -866 648 -884 674 -22 31 -20 90 8 221 31 140 71
399 90 582 45 419 49 503 55 1310 l6 790 65 -3 c67 -3 435 -47 685 -82 173
-25 165 -25 165 5 0 31 -9 32 229 -5 107 -17 196 -30 197 -30 2 0 4 -18 6 -41
l3 -40 280 -126 c381 -170 1397 -624 1413 -630 9 -4 12 13 14 63 1 39 3 53 5
33 l4 -36 747 -339 747 -339 5 -50 c5 -45 7 -50 30 -50 20 0 26 6 28 28 4 35
14 34 46 -3 l25 -30 7 37 c4 21 8 93 8 160 0 90 3 123 12 123 13 0 24 22 24
50 0 9 -31 69 -70 133 -38 63 -70 124 -70 135 0 11 -11 34 -25 50 -14 17 -25
41 -25 55 0 21 -36 55 -197 189 -366 304 -610 498 -1408 1123 -492 385 -981
772 -1362 1077 l-273 218 6 48 c11 95 24 157 34 160 29 10 53 42 61 82 4 25
14 126 20 226 13 189 2 498 -20 556 -6 15 -25 35 -43 45 -29 16 -60 18 -258
18 -169 0 -231 -3 -248 -13 -47 -27 -54 -65 -53 -326 0 -133 4 -275 9 -316 5
-41 7 -78 5 -83 -2 -4 -52 34 -109 85 -58 51 -153 131 -212 176 -172 135 -300
251 -334 303 -17 27 -33 47 -36 45 -2 -3 -8 -24 -13 -47 -8 -35 -6 -55 12
-111 18 -53 20 -71 11 -80 -10 -10 -20 -5 -48 23 -30 31 -36 44 -40 93 -2 32
-12 72 -22 90 -20 37 -20 9 -8 1621 13 1721 -5 2004 -170 2670 -78 316 -152
513 -246 656 -57 88 -91 121 -165 158 -56 28 -78 26 -143 -10z m-1805 -6227
c-45 -42 -197 -154 -194 -143 5 15 189 160 204 161 5 0 1 -8 -10 -18z m3866
-58 c54 -42 99 -80 99 -86 0 -9 -196 137 -206 154 -12 20 14 3 107 -68z
m-4096 -119 c-16 -14 -34 -25 -40 -25 -5 1 4 12 20 25 17 14 35 25 40 25 6 -1
-3 -12 -20 -25z m4250 0 c17 -13 26 -24 20 -25 -5 0 -23 11 -40 25 -16 13 -25
24 -20 25 6 0 24 -11 40 -25z m-4305 -35 c0 -12 -249 -204 -256 -197 -4 4 240
202 254 206 1 1 2 -3 2 -9z m4596 -197 c-7 -7 -256 185 -256 197 0 6 59 -36
131 -91 71 -56 128 -103 125 -106z m-4872 -22 c-30 -30 -208 -160 -212 -156
-5 5 9 17 133 111 44 34 82 60 84 58 3 -3 0 -8 -5 -13z m5100 -143 c6 -4 8 -9
5 -12 -7 -7 -219 154 -219 166 0 5 46 -26 102 -69 56 -43 107 -81 112 -85z
m-5325 -31 c-77 -63 -219 -166 -219 -159 0 12 211 174 218 167 3 -3 3 -7 1 -8z
m5464 -76 c53 -41 97 -78 97 -83 0 -11 -219 154 -220 165 0 11 11 4 123 -82z
m-5693 -95 c0 -8 -209 -166 -228 -173 -25 -9 -19 -4 103 91 101 78 125 94 125
82z m5918 -77 c121 -93 135 -105 110 -96 -19 7 -228 165 -228 173 0 11 20 -2
118 -77z m-6168 -114 c0 -9 -222 -176 -228 -171 -3 4 3 13 14 20 10 8 60 46
109 84 83 65 105 79 105 67z m6418 -77 c59 -45 109 -83 111 -85 2 -2 2 -5 -1
-9 -6 -5 -212 148 -223 166 -13 22 10 6 113 -72z m-6664 -117 c-44 -39 -226
-172 -223 -162 5 15 222 182 228 175 3 -2 0 -8 -5 -13z m6914 -76 c56 -43 102
-82 102 -87 0 -5 -52 31 -115 79 -63 48 -115 92 -115 97 0 4 6 4 13 -1 6 -5
58 -45 115 -88z m-7148 -99 c0 -3 -48 -42 -107 -87 -60 -45 -114 -87 -122 -93
-11 -8 -13 -8 -10 1 4 13 218 182 232 182 4 1 7 -1 7 -3z m7386 -83 c63 -48
114 -91 114 -96 0 -6 -5 -6 -12 0 -7 6 -61 47 -120 92 -60 45 -108 84 -108 87
0 11 19 -2 126 -83z m-7640 -111 c-10 -17 -218 -173 -214 -161 2 6 49 47 103
90 92 71 124 92 111 71z m7879 -73 c58 -44 105 -85 105 -90 0 -9 -206 146
-216 163 -12 20 13 3 111 -73z m-8110 -108 c-28 -27 -210 -161 -218 -161 -14
0 -17 -3 103 90 58 44 109 80 115 80 6 0 6 -3 0 -9z m8334 -63 c52 -40 102
-78 110 -85 9 -7 11 -13 4 -13 -6 0 -53 32 -105 71 -106 82 -126 99 -113 99 5
0 51 -33 104 -72z m-8574 -118 c-10 -17 -228 -180 -233 -175 -3 2 7 14 23 26
162 128 201 158 208 158 5 1 5 -3 2 -9z m8827 -76 c135 -104 122 -93 117 -99
-6 -5 -224 159 -234 175 -13 21 9 7 117 -76z m-9073 -117 c-128 -100 -181
-138 -185 -134 -3 3 36 37 87 76 50 40 94 69 97 66 3 -3 3 -6 1 -8z m9309 -65
c46 -35 81 -66 78 -69 -6 -6 -185 129 -186 140 0 12 14 2 108 -71z m-9508 -80
c0 -11 -179 -146 -185 -140 -4 4 172 146 183 148 1 0 2 -4 2 -8z m9713 -76
c43 -32 75 -61 73 -64 -7 -6 -186 128 -186 140 0 10 0 10 113 -76z m-9943
-107 c-41 -35 -70 -53 -70 -42 1 10 82 72 95 72 6 0 -6 -13 -25 -30z m10085
-1 c44 -33 62 -58 28 -39 -26 14 -89 70 -80 71 4 0 28 -15 52 -32z"/>
</g>
</svg>
