<?xml version="1.0" standalone="no"?>
<!DOCTYPE svg PUBLIC "-//W3C//DTD SVG 20010904//EN"
 "http://www.w3.org/TR/2001/REC-SVG-20010904/DTD/svg10.dtd">
<svg version="1.0" xmlns="http://www.w3.org/2000/svg"
 width="1280.000000pt" height="964.000000pt" viewBox="0 0 1280.000000 964.000000"
 preserveAspectRatio="xMidYMid meet">
<metadata>
Created by potrace 1.15, written by Peter Selinger 2001-2017
</metadata>
<g transform="translate(0.000000,964.000000) scale(0.100000,-0.100000)"
fill="#ffffff" stroke="none">
<path d="M560 9633 c-112 -19 -241 -87 -326 -171 -101 -101 -168 -229 -212
-401 -15 -61 -16 -405 -19 -4563 l-3 -4498 670 0 670 0 0 1138 0 1137 5075 3
5075 2 0 -1130 0 -1130 655 0 655 0 0 3448 c-1 2167 -4 3475 -10 3522 -55 425
-312 702 -650 702 -231 0 -433 -133 -548 -363 -30 -58 -65 -148 -79 -204 l-27
-100 -3 -1457 -4 -1458 -5084 0 -5085 0 0 2348 c0 1445 -4 2389 -10 2457 -13
147 -40 250 -97 365 -38 77 -62 110 -128 175 -92 92 -167 136 -281 165 -71 18
-170 24 -234 13z"/>
<path d="M2521 8629 c-293 -62 -550 -244 -738 -524 -115 -171 -202 -408 -233
-634 -15 -108 -15 -324 0 -432 102 -742 687 -1257 1326 -1168 372 51 712 319
895 703 314 660 127 1486 -426 1877 -241 171 -545 236 -824 178z"/>
<path d="M4440 7661 c-85 -27 -133 -56 -199 -116 -77 -72 -128 -149 -169 -258
-58 -156 -62 -210 -62 -924 l0 -642 -977 -4 c-1082 -3 -1031 0 -1169 -69 -128
-63 -217 -153 -283 -284 -51 -101 -66 -173 -66 -319 0 -145 19 -227 78 -340
47 -89 165 -203 257 -248 157 -77 50 -72 1515 -72 l1310 0 68 23 c142 50 252
153 327 307 80 166 75 76 75 1305 l0 1095 -23 85 c-63 230 -197 391 -380 456
-85 30 -218 32 -302 5z"/>
<path d="M5310 6025 l0 -1625 2945 0 2946 0 -4 1133 c-3 1113 -3 1133 -24
1218 -111 449 -355 733 -727 848 -172 53 -61 51 -2693 51 l-2443 0 0 -1625z"/>
</g>
</svg>
