<?xml version="1.0" standalone="no"?>
<!DOCTYPE svg PUBLIC "-//W3C//DTD SVG 20010904//EN"
 "http://www.w3.org/TR/2001/REC-SVG-20010904/DTD/svg10.dtd">
<svg version="1.0" xmlns="http://www.w3.org/2000/svg"
 width="1280.000000pt" height="867.000000pt" viewBox="0 0 1280.000000 867.000000"
 preserveAspectRatio="xMidYMid meet">
<metadata>
Created by potrace 1.15, written by Peter Selinger 2001-2017
</metadata>
<g transform="translate(0.000000,867.000000) scale(0.100000,-0.100000)"
fill="#ffffff" stroke="none">
<path d="M6210 8664 c-324 -30 -667 -150 -903 -314 -114 -80 -252 -212 -333
-319 -116 -153 -224 -406 -241 -563 l-6 -58 -2116 -2 -2116 -3 -80 -27 c-205
-70 -358 -240 -400 -445 -13 -64 -15 -460 -13 -3230 l3 -3158 21 -55 c43 -111
77 -166 153 -241 55 -55 97 -86 151 -113 117 -57 179 -66 468 -66 168 0 252
-3 252 -10 0 -6 11 -22 25 -35 22 -23 32 -25 113 -25 80 0 91 2 110 23 12 13
22 29 22 35 0 9 1194 12 5185 12 4541 0 5185 -2 5185 -15 0 -8 10 -23 22 -35
18 -17 35 -20 106 -20 92 0 118 9 132 46 9 24 10 24 157 24 255 0 378 43 514
179 76 75 110 130 153 241 l21 55 3 3158 c2 2770 0 3166 -13 3230 -42 205
-195 375 -400 445 l-80 27 -2116 3 -2116 2 -6 58 c-17 157 -125 410 -241 563
-136 179 -326 333 -541 439 -270 133 -510 188 -835 194 -107 2 -215 2 -240 0z
m455 -115 c128 -17 316 -66 437 -115 201 -80 352 -178 494 -319 183 -182 285
-371 348 -642 l14 -63 -1558 0 -1558 0 14 63 c63 269 165 458 344 637 194 195
437 327 733 399 240 58 486 71 732 40z"/>
</g>
</svg>
